<svg width="32" height="33" viewBox="0 0 32 33" fill="none" xmlns="http://www.w3.org/2000/svg">
<g clip-path="url(#clip0_442_1026)">
<path d="M15.6667 0.6875C7.0141 0.6875 0 7.7016 0 16.3542C0 25.0067 7.0141 32.0208 15.6667 32.0208C24.3192 32.0208 31.3333 25.0067 31.3333 16.3542C31.3333 7.7016 24.3192 0.6875 15.6667 0.6875ZM19.3777 11.5138H17.0228C16.7437 11.5138 16.4337 11.881 16.4337 12.369V14.0694H19.3793L18.9338 16.4945H16.4337V23.7746H13.6545V16.4945H11.1331V14.0694H13.6545V12.6431C13.6545 10.5967 15.0743 8.93371 17.0228 8.93371H19.3777V11.5138Z" fill="#DCDFE5"/>
</g>
<defs>
<clipPath id="clip0_442_1026">
<rect width="31.3333" height="31.3333" fill="white" transform="translate(0 0.6875)"/>
</clipPath>
</defs>
</svg>
