<svg width="206" height="42" viewBox="0 0 206 42" fill="none" xmlns="http://www.w3.org/2000/svg">
<path d="M142.552 28.9441C141.002 28.9441 139.624 28.5996 138.418 27.9105C137.126 27.2214 136.178 26.2739 135.403 24.9819C134.628 23.776 134.283 22.3118 134.283 20.6752C134.283 19.0387 134.628 17.5744 135.317 16.3685C136.006 15.1626 136.953 14.2151 138.159 13.526C139.365 12.837 140.657 12.4924 142.121 12.4924C143.672 12.4924 144.964 12.837 146.084 13.526C147.203 14.2151 148.065 15.0765 148.668 16.1962C149.271 17.316 149.615 18.4357 149.615 19.6416C149.615 20.2445 149.529 20.7613 149.357 21.0197C149.184 21.2781 148.926 21.4504 148.668 21.5365C148.409 21.6227 148.151 21.6227 147.892 21.6227H136.695C136.867 23.1731 137.556 24.379 138.59 25.3265C139.624 26.1878 141.002 26.7046 142.466 26.7046C143.327 26.7046 144.103 26.5323 144.792 26.2739C145.481 26.0155 146.17 25.671 146.773 25.2403C146.945 25.1542 147.117 25.0681 147.29 24.9819C147.462 24.8958 147.634 24.8958 147.806 24.8958C148.065 24.8958 148.323 24.9819 148.582 25.2403C148.754 25.4987 148.926 25.7571 148.926 26.0155C148.926 26.3601 148.754 26.7046 148.323 27.0492C147.72 27.4798 146.859 27.9105 145.911 28.3412C144.878 28.7718 143.758 28.9441 142.552 28.9441ZM142.208 14.8181C140.743 14.8181 139.537 15.2487 138.59 16.1101C137.642 16.9714 137.04 18.0912 136.781 19.5555H147.29C147.203 18.1773 146.773 17.0576 145.825 16.1101C144.878 15.2487 143.672 14.8181 142.208 14.8181Z" fill="#838383"/>
<path d="M158.056 28.944C156.764 28.944 155.645 28.7717 154.611 28.341C153.577 27.9103 152.716 27.4797 152.027 26.8767C151.941 26.7906 151.769 26.6183 151.683 26.5322C151.596 26.3599 151.51 26.1877 151.51 26.0154C151.51 25.757 151.596 25.4986 151.855 25.2402C152.113 24.9818 152.285 24.8956 152.63 24.8956C152.888 24.8956 153.233 25.0679 153.664 25.4124C154.18 25.8431 154.87 26.1877 155.645 26.4461C156.42 26.7045 157.281 26.8767 158.229 26.8767C158.918 26.8767 159.521 26.7906 160.124 26.6183C160.727 26.4461 161.243 26.1877 161.588 25.757C162.019 25.4124 162.191 24.8956 162.191 24.2927C162.191 23.5175 161.846 22.9146 161.243 22.57C160.641 22.2255 159.865 21.9671 159.09 21.8809L156.592 21.5364C155.817 21.4503 155.128 21.1919 154.353 20.8473C153.664 20.5028 153.061 20.0721 152.544 19.4692C152.113 18.8662 151.855 18.091 151.855 17.2297C151.855 16.1961 152.113 15.3347 152.716 14.7318C153.319 14.0427 154.094 13.5259 155.042 13.1814C155.989 12.8368 157.023 12.6646 158.056 12.6646C159.176 12.6646 160.21 12.8368 161.157 13.1814C162.105 13.5259 162.794 13.9566 163.397 14.3872C163.569 14.5595 163.741 14.6456 163.914 14.8179C164 14.9902 164.086 15.1624 164.086 15.4209C164.086 15.6793 164 15.9377 163.741 16.1961C163.569 16.4545 163.225 16.5406 162.966 16.5406C162.794 16.5406 162.708 16.5406 162.535 16.4545C162.363 16.3683 162.191 16.2822 161.933 16.1099C161.33 15.7654 160.727 15.4209 160.124 15.2486C159.521 14.9902 158.746 14.904 157.97 14.904C157.367 14.904 156.851 14.9902 156.248 15.1625C155.645 15.3347 155.214 15.5931 154.87 15.9377C154.525 16.2822 154.353 16.7129 154.353 17.2297C154.353 17.7465 154.525 18.091 154.87 18.4356C155.214 18.7801 155.559 18.9524 155.989 19.1246C156.42 19.2969 156.851 19.383 157.281 19.4692L159.779 19.8137C160.727 19.8998 161.502 20.1582 162.191 20.5889C162.88 20.9335 163.483 21.4503 163.914 22.0532C164.344 22.6561 164.603 23.4314 164.603 24.3788C164.603 25.4986 164.258 26.3599 163.655 27.1351C163.052 27.8242 162.191 28.4272 161.243 28.7717C160.21 28.7717 159.176 28.944 158.056 28.944Z" fill="#838383"/>
<path d="M168.479 9.82213C168.048 9.82213 167.703 9.64986 167.359 9.39145C167.1 9.13305 166.928 8.78851 166.928 8.35784C166.928 7.92717 167.1 7.58263 167.359 7.32423C167.617 7.06582 168.048 6.89355 168.479 6.89355C168.909 6.89355 169.254 7.06582 169.598 7.32423C169.857 7.58263 170.029 7.92717 170.029 8.35784C170.029 8.78851 169.857 9.13305 169.598 9.39145C169.254 9.73599 168.909 9.82213 168.479 9.82213ZM168.479 28.944C167.703 28.944 167.273 28.5133 167.273 27.7381V13.7843C167.273 12.923 167.703 12.5784 168.479 12.5784C169.254 12.5784 169.685 13.0091 169.685 13.7843V27.652C169.685 28.5133 169.254 28.944 168.479 28.944Z" fill="#838383"/>
<path d="M191.821 28.9441C191.046 28.9441 190.615 28.5134 190.615 27.7382V13.7844C190.615 12.9231 191.046 12.5786 191.821 12.5786C192.596 12.5786 193.027 13.0092 193.027 13.7844V15.5071H193.113C193.63 14.6458 194.405 13.9567 195.353 13.3538C196.3 12.7508 197.506 12.4924 198.712 12.4924C199.918 12.4924 201.038 12.7508 202.071 13.3538C203.019 13.8706 203.794 14.7319 204.397 15.6794C204.914 16.713 205.258 17.8328 205.258 19.2109V27.6521C205.258 28.5134 204.827 28.858 204.052 28.858C203.277 28.858 202.846 28.4273 202.846 27.6521V19.4693C202.846 18.005 202.416 16.7992 201.554 16.0239C200.693 15.1626 199.659 14.8181 198.281 14.8181C197.248 14.8181 196.3 15.0765 195.525 15.5071C194.75 16.0239 194.061 16.6269 193.63 17.4882C193.199 18.3496 192.941 19.2109 192.941 20.2445V27.7382C192.941 28.5134 192.596 28.9441 191.821 28.9441Z" fill="#838383"/>
<path d="M132.475 20.5028C132.475 20.4167 132.475 20.3306 132.475 20.3306V6.72131C132.475 6.11837 131.958 5.60156 131.355 5.60156C130.752 5.60156 130.235 6.11837 130.235 6.72131V15.3348C128.771 13.7843 126.704 12.8369 124.378 12.8369C119.899 12.8369 116.281 16.4545 116.281 20.9335C116.281 25.4125 119.899 29.0301 124.378 29.0301C128.857 29.0301 132.475 25.4125 132.475 20.9335C132.475 20.7612 132.475 20.589 132.475 20.5028ZM124.378 26.7906C121.191 26.7906 118.521 24.2066 118.521 20.9335C118.521 17.7465 121.105 15.0764 124.378 15.0764C127.565 15.0764 130.235 17.7465 130.235 20.9335C130.235 24.1205 127.565 26.7906 124.378 26.7906Z" fill="#838383"/>
<path d="M188.289 20.9336C188.289 16.4546 184.672 12.8369 180.193 12.8369C175.714 12.8369 172.096 16.4546 172.096 20.9336C172.096 25.4125 175.714 29.0302 180.193 29.0302C182.518 29.0302 184.586 28.0827 186.05 26.5323V27.5659C186.05 30.839 183.466 33.1646 179.676 33.1646C178.039 33.1646 176.747 32.8201 175.714 32.0449C175.197 31.7004 174.508 31.7865 174.163 32.3033C173.819 32.8201 173.905 33.5092 174.422 33.8537C175.8 34.8873 177.609 35.4041 179.762 35.4041C184.758 35.4041 188.376 32.0449 188.376 27.4798V21.1058C188.376 21.1058 188.376 21.1058 188.376 21.0197C188.289 21.1058 188.289 21.0197 188.289 20.9336ZM180.193 26.7907C177.006 26.7907 174.336 24.2067 174.336 20.9336C174.336 17.7466 176.92 15.0764 180.193 15.0764C183.38 15.0764 186.05 17.7466 186.05 20.9336C186.05 24.1205 183.38 26.7907 180.193 26.7907Z" fill="#838383"/>
<path d="M23.8573 29.1172C20.5842 29.1172 17.9141 31.7874 17.9141 35.0605C17.9141 38.3336 20.5842 41.0037 23.8573 41.0037C27.1305 41.0037 29.8006 38.3336 29.8006 35.0605C29.8006 31.7874 27.1305 29.1172 23.8573 29.1172Z" fill="#FAB516"/>
<path d="M6.80656 29.1172C3.53345 29.1172 0.863281 31.7874 0.863281 35.0605C0.863281 38.3336 3.53345 41.0037 6.80656 41.0037C10.0797 41.0037 12.7498 38.3336 12.7498 35.0605C12.7498 31.7874 10.0797 29.1172 6.80656 29.1172Z" fill="#EC363F"/>
<path d="M40.912 29.1172C37.6389 29.1172 34.9688 31.7874 34.9688 35.0605C34.9688 38.3336 37.6389 41.0037 40.912 41.0037C44.1851 41.0037 46.8553 38.3336 46.8553 35.0605C46.9414 31.7874 44.2713 29.1172 40.912 29.1172Z" fill="#0CAD55"/>
<path d="M75.1073 29.1172C71.8342 29.1172 69.1641 31.7874 69.1641 35.0605C69.1641 38.3336 71.8342 41.0037 75.1073 41.0037C78.3804 41.0037 81.0506 38.3336 81.0506 35.0605C81.0506 31.7874 78.3804 29.1172 75.1073 29.1172Z" fill="#08A7DD"/>
<path d="M58.0566 29.1172C54.7835 29.1172 52.1133 31.7874 52.1133 35.0605C52.1133 38.3336 54.7835 41.0037 58.0566 41.0037C61.3297 41.0037 63.9998 38.3336 63.9998 35.0605C63.9998 31.7874 61.3297 29.1172 58.0566 29.1172Z" fill="#A04698"/>
<path d="M11.4559 12.0622C11.4559 9.4782 9.47479 7.49711 6.89076 7.49711C4.30672 7.49711 2.32563 9.4782 2.32563 12.0622C2.32563 14.6463 4.30672 16.6274 6.89076 16.6274C9.47479 16.5412 11.4559 14.6463 11.4559 12.0622ZM0 12.0622C0 8.18619 3.10084 5.34375 6.89076 5.34375C10.6807 5.34375 13.7815 8.18619 13.7815 12.0622V17.8332C13.7815 18.5223 13.3508 19.0391 12.5756 19.0391C11.8004 19.0391 11.3697 18.5223 11.3697 17.8332V16.369H11.1975C10.4223 17.661 8.87185 18.7807 6.71849 18.7807C3.01471 18.7807 0 15.8522 0 12.0622Z" fill="#595A5A"/>
<path d="M28.4244 12.0622C28.4244 9.4782 26.4433 7.49711 23.8593 7.49711C21.2753 7.49711 19.2942 9.4782 19.2942 12.0622C19.2942 14.6463 21.2753 16.6274 23.8593 16.6274C26.4433 16.5412 28.4244 14.6463 28.4244 12.0622ZM19.6387 23.0874C19.0358 22.7429 18.6912 22.2261 18.9496 21.6232C19.208 20.9341 19.8971 20.7618 20.5001 21.0202C21.4475 21.4509 22.5673 21.7093 23.687 21.7093C26.6156 21.7093 28.4244 19.9866 28.4244 17.058V16.369H28.2522C27.477 17.661 25.9265 18.7807 23.7732 18.7807C20.0694 18.7807 17.0547 15.8522 17.0547 12.0622C17.0547 8.18619 20.1555 5.34375 23.9454 5.34375C27.7354 5.34375 30.8362 8.18619 30.8362 12.0622V16.9719C30.8362 21.1064 28.0799 24.0349 23.687 24.0349C22.2228 23.9488 20.8446 23.6904 19.6387 23.0874Z" fill="#595A5A"/>
<path d="M45.4793 12.0622C45.4793 9.4782 43.4982 7.49711 40.9142 7.49711C38.3302 7.49711 36.3491 9.4782 36.3491 12.0622C36.3491 14.6463 38.3302 16.6274 40.9142 16.6274C43.4982 16.5412 45.4793 14.6463 45.4793 12.0622ZM34.0234 12.0622C34.0234 8.18619 37.0381 5.34375 40.9142 5.34375C44.7041 5.34375 47.805 8.27232 47.805 12.0622C47.805 15.9383 44.7041 18.7807 40.9142 18.7807C37.0381 18.7807 34.0234 15.8522 34.0234 12.0622Z" fill="#595A5A"/>
<path d="M62.4479 12.0588C62.4479 9.47479 60.4668 7.4937 57.8827 7.4937C55.2987 7.4937 53.3176 9.47479 53.3176 12.0588C53.3176 14.6429 55.2987 16.6239 57.8827 16.6239C60.5529 16.5378 62.4479 14.6429 62.4479 12.0588ZM51.0781 12.0588C51.0781 8.18277 54.0928 5.34034 57.7966 5.34034C60.0361 5.34034 61.5004 6.37395 62.2756 7.7521H62.4479V1.20588C62.4479 0.516807 62.8785 0 63.6538 0C64.429 0 64.8596 0.516807 64.8596 1.20588V12.0588C64.8596 15.9349 61.7588 18.7773 57.9689 18.7773C54.0928 18.7773 51.0781 15.8487 51.0781 12.0588Z" fill="#595A5A"/>
<path d="M79.5028 12.0622C79.5028 9.4782 77.5217 7.49711 74.9376 7.49711C72.3536 7.49711 70.3725 9.4782 70.3725 12.0622C70.3725 14.6463 72.3536 16.6274 74.9376 16.6274C77.5217 16.6274 79.5028 14.6463 79.5028 12.0622ZM68.0469 12.0622C68.0469 8.18619 71.1477 5.34375 74.9376 5.34375C78.7275 5.34375 81.8284 8.18619 81.8284 12.0622V17.8332C81.8284 18.5223 81.3977 19.0391 80.6225 19.0391C79.8473 19.0391 79.4166 18.5223 79.4166 17.8332V16.369H79.2444C78.4691 17.661 76.9187 18.7807 74.7654 18.7807C71.0616 18.7807 68.0469 15.8522 68.0469 12.0622Z" fill="#595A5A"/>
<line x1="100.5" y1="0.5" x2="100.5" y2="40.5" stroke="#737373" stroke-linecap="round"/>
</svg>
