<svg width="33" height="33" viewBox="0 0 33 33" fill="none" xmlns="http://www.w3.org/2000/svg">
<g clip-path="url(#clip0_442_1028)">
<path fill-rule="evenodd" clip-rule="evenodd" d="M16.1391 31.0516C24.5239 31.0516 31.3211 24.2543 31.3211 15.8695C31.3211 7.48473 24.5239 0.6875 16.1391 0.6875C7.75426 0.6875 0.957031 7.48473 0.957031 15.8695C0.957031 24.2543 7.75426 31.0516 16.1391 31.0516ZM19.1264 8.6792C18.2453 8.63905 17.9811 8.63057 15.7501 8.63057C13.519 8.63057 13.2548 8.63905 12.3737 8.6792C11.5591 8.71641 11.1166 8.85251 10.8222 8.96694C10.4322 9.11852 10.1539 9.29953 9.86144 9.59198C9.56907 9.88436 9.38798 10.1627 9.23647 10.5527C9.12204 10.8471 8.98594 11.2896 8.94873 12.1043C8.90852 12.9853 8.90003 13.2496 8.90003 15.4806C8.90003 17.7116 8.90852 17.9759 8.94873 18.8569C8.98587 19.6716 9.12204 20.114 9.23647 20.4084C9.38798 20.7984 9.56907 21.0768 9.86144 21.3692C10.1538 21.6616 10.4322 21.8427 10.8222 21.9942C11.1167 22.1086 11.5591 22.2447 12.3737 22.2819C13.2546 22.3221 13.5189 22.3306 15.7501 22.3306C17.9812 22.3306 18.2455 22.3221 19.1264 22.2819C19.9411 22.2448 20.3835 22.1086 20.678 21.9942C21.0679 21.8427 21.3463 21.6616 21.6387 21.3692C21.931 21.0768 22.1121 20.7984 22.2637 20.4084C22.3781 20.114 22.5142 19.6716 22.5514 18.8569C22.5916 17.9759 22.6001 17.7116 22.6001 15.4806C22.6001 13.2496 22.5916 12.9853 22.5514 12.1042C22.5142 11.2896 22.3781 10.8471 22.2637 10.5527C22.1121 10.1627 21.9311 9.88436 21.6387 9.59198C21.3463 9.2996 21.0679 9.11852 20.678 8.96694C20.3835 8.85251 19.9411 8.71641 19.1264 8.6792ZM12.3051 7.17526C13.1963 7.1346 13.4808 7.125 15.7501 7.125C18.0193 7.125 18.3039 7.1346 19.1951 7.17526C20.0844 7.21587 20.6918 7.35713 21.2233 7.56367C21.7727 7.77712 22.2387 8.06291 22.7032 8.52743C23.1677 8.99194 23.4535 9.4579 23.667 10.0074C23.8735 10.5388 24.0148 11.1462 24.0554 12.0356C24.096 12.9268 24.1056 13.2113 24.1056 15.4806C24.1056 17.7498 24.096 18.0344 24.0554 18.9256C24.0148 19.8149 23.8735 20.4223 23.667 20.9538C23.4535 21.5033 23.1677 21.9692 22.7032 22.4337C22.2387 22.8983 21.7727 23.184 21.2232 23.3974C20.6918 23.604 20.0844 23.7452 19.1951 23.7858C18.3039 23.8265 18.0193 23.8361 15.7501 23.8361C13.4808 23.8361 13.1963 23.8265 12.3051 23.7858C11.4157 23.7452 10.8084 23.604 10.2769 23.3974C9.72736 23.1839 9.26141 22.8983 8.79689 22.4337C8.33238 21.9692 8.04666 21.5032 7.8332 20.9538C7.62659 20.4223 7.4854 19.8149 7.4448 18.9255C7.40413 18.0344 7.39453 17.7498 7.39453 15.4806C7.39453 13.2113 7.40413 12.9268 7.4448 12.0356C7.4854 11.1462 7.62659 10.5388 7.8332 10.0073C8.04672 9.4579 8.33238 8.99194 8.79689 8.52743C9.26141 8.06291 9.72736 7.77719 10.2769 7.56367C10.8083 7.35713 11.4157 7.21587 12.3051 7.17526ZM11.4594 15.4806C11.4594 13.111 13.3804 11.1898 15.7501 11.1898C18.1197 11.1898 20.0408 13.1109 20.0408 15.4806C20.0408 17.8503 18.1197 19.7713 15.7501 19.7713C13.3804 19.7713 11.4594 17.8503 11.4594 15.4806ZM12.9649 15.4806C12.9649 17.0188 14.2119 18.2658 15.7501 18.2658C17.2883 18.2658 18.5353 17.0188 18.5353 15.4806C18.5353 13.9423 17.2883 12.6953 15.7501 12.6953C14.2119 12.6953 12.9649 13.9423 12.9649 15.4806ZM20.2103 12.023C20.7641 12.023 21.2129 11.5741 21.2129 11.0203C21.2129 10.4666 20.7641 10.0177 20.2103 10.0177C19.6565 10.0177 19.2076 10.4666 19.2076 11.0203C19.2076 11.5741 19.6565 12.023 20.2103 12.023Z" fill="#DCDFE5"/>
</g>
<defs>
<clipPath id="clip0_442_1028">
<rect width="31.3333" height="31.3333" fill="white" transform="translate(0.957031 0.6875)"/>
</clipPath>
</defs>
</svg>
