<svg width="33" height="33" viewBox="0 0 33 33" fill="none" xmlns="http://www.w3.org/2000/svg">
<g clip-path="url(#clip0_442_1032)">
<path d="M16.5768 0.6875C7.92425 0.6875 0.910156 7.7016 0.910156 16.3542C0.910156 25.0067 7.92425 32.0208 16.5768 32.0208C25.2294 32.0208 32.2435 25.0067 32.2435 16.3542C32.2435 7.7016 25.2294 0.6875 16.5768 0.6875ZM22.9496 13.5211C22.9561 13.6549 22.9577 13.7888 22.9577 13.9193C22.9577 17.9992 19.8554 22.7008 14.1795 22.7008C12.5023 22.7036 10.8601 22.2219 9.45012 21.3136C9.69002 21.343 9.93644 21.3544 10.1861 21.3544C11.632 21.3544 12.9621 20.8632 14.0179 20.0342C13.3745 20.0216 12.751 19.8085 12.2344 19.4247C11.7178 19.0409 11.3338 18.5055 11.1359 17.8931C11.598 17.981 12.074 17.9625 12.528 17.8392C11.8296 17.698 11.2015 17.3196 10.7503 16.7681C10.2991 16.2167 10.0525 15.5261 10.0523 14.8136V14.7761C10.4685 15.0062 10.945 15.1465 11.4509 15.1628C10.7961 14.727 10.3327 14.0575 10.1552 13.2912C9.97774 12.525 10.0997 11.7199 10.4962 11.0406C11.2713 11.9936 12.2379 12.7733 13.3334 13.329C14.429 13.8848 15.629 14.2043 16.8559 14.2669C16.6999 13.6048 16.767 12.9098 17.0468 12.2898C17.3266 11.6698 17.8034 11.1597 18.4031 10.8386C19.0027 10.5176 19.6917 10.4036 20.3628 10.5145C21.0338 10.6254 21.6495 10.9549 22.114 11.4518C22.8046 11.3152 23.4669 11.0619 24.0723 10.7027C23.8422 11.4178 23.3603 12.0249 22.7162 12.4114C23.3279 12.3377 23.9253 12.1733 24.4885 11.9234C24.0748 12.5434 23.5536 13.0845 22.9496 13.5211Z" fill="#DCDFE5"/>
</g>
<defs>
<clipPath id="clip0_442_1032">
<rect width="31.3333" height="31.3333" fill="white" transform="translate(0.910156 0.6875)"/>
</clipPath>
</defs>
</svg>
