<svg width="33" height="33" viewBox="0 0 33 33" fill="none" xmlns="http://www.w3.org/2000/svg">
<g clip-path="url(#clip0_442_1034)">
<path d="M19.1499 16.0816L15.4845 14.3714C15.1647 14.2228 14.9019 14.3893 14.9019 14.7434V17.9649C14.9019 18.319 15.1647 18.4855 15.4845 18.337L19.1482 16.6267C19.4697 16.4766 19.4697 16.2318 19.1499 16.0816ZM16.5339 0.6875C7.88129 0.6875 0.867188 7.7016 0.867188 16.3542C0.867188 25.0067 7.88129 32.0208 16.5339 32.0208C25.1864 32.0208 32.2005 25.0067 32.2005 16.3542C32.2005 7.7016 25.1864 0.6875 16.5339 0.6875ZM16.5339 22.7188C8.51448 22.7188 8.37413 21.9958 8.37413 16.3542C8.37413 10.7125 8.51448 9.98958 16.5339 9.98958C24.5532 9.98958 24.6936 10.7125 24.6936 16.3542C24.6936 21.9958 24.5532 22.7188 16.5339 22.7188Z" fill="#DCDFE5"/>
</g>
<defs>
<clipPath id="clip0_442_1034">
<rect width="31.3333" height="31.3333" fill="white" transform="translate(0.867188 0.6875)"/>
</clipPath>
</defs>
</svg>
